<?xml version="1.0" ?><svg data-name="Layer 1" id="Layer_1" viewBox="0 0 32 32" xmlns="http://www.w3.org/2000/svg"><defs><style>.cls-1{fill:#c939e2;}.cls-2{fill:#f4d7f9;}</style></defs><title/><path class="cls-1" d="M15.35,30a13.35,13.35,0,1,1,0-26.69h.7A.93.93,0,1,1,16,5.18h-.6A11.48,11.48,0,1,0,26.83,16.65c0-.2,0-.39,0-.6a.93.93,0,0,1,.87-1,.94.94,0,0,1,1,.88c0,.24,0,.46,0,.7A13.36,13.36,0,0,1,15.35,30Z"/><path class="cls-2" d="M29.07,11.15H20.85V2.93a.93.93,0,1,0-1.86,0v8.22H10.77a.93.93,0,0,0,0,1.86H19v8.22a.93.93,0,0,0,1.86,0V13h8.22a.93.93,0,0,0,0-1.86Z"/></svg>